<?xml version="1.0" encoding="utf-8"?>
<!-- Generator: Adobe Illustrator 19.0.0, SVG Export Plug-In . SVG Version: 6.00 Build 0)  -->
<svg version="1.1" id="Layer_1" xmlns="http://www.w3.org/2000/svg" xmlns:xlink="http://www.w3.org/1999/xlink" x="0px" y="0px"
	 viewBox="0 0 96 96" style="enable-background:new 0 0 96 96;" xml:space="preserve">
<style type="text/css">
	.st0{fill:#333333;}
</style>
<g id="XMLID_2_">
	<path id="XMLID_9_" class="st0" d="M48,20.5c-15.2,0-27.5,12.3-27.5,27.5S32.8,75.5,48,75.5c2.5,0,4.6-2,4.6-4.6
		c0-1.2-0.4-2.3-1.2-3.1c-0.7-0.8-1.1-1.9-1.1-3c0-2.5,2-4.6,4.6-4.6h5.4c8.4,0,15.3-6.8,15.3-15.3C75.5,31.4,63.2,20.5,48,20.5z
		 M31.2,48c-2.5,0-4.6-2-4.6-4.6c0-2.5,2-4.6,4.6-4.6s4.6,2,4.6,4.6C35.8,46,33.7,48,31.2,48z M40.4,35.8c-2.5,0-4.6-2-4.6-4.6
		s2-4.6,4.6-4.6s4.6,2,4.6,4.6S42.9,35.8,40.4,35.8z M55.6,35.8c-2.5,0-4.6-2-4.6-4.6s2-4.6,4.6-4.6s4.6,2,4.6,4.6
		S58.2,35.8,55.6,35.8z M64.8,48c-2.5,0-4.6-2-4.6-4.6c0-2.5,2-4.6,4.6-4.6s4.6,2,4.6,4.6C69.4,46,67.3,48,64.8,48z"/>
</g>
</svg>
